<?xml version="1.0" encoding="UTF-8" standalone="no"?>
<!DOCTYPE svg PUBLIC "-//W3C//DTD SVG 1.1//EN"
 "http://www.w3.org/Graphics/SVG/1.1/DTD/svg11.dtd">
<!-- Generated by graphviz version 2.49.3 (20211023.0002)
 -->
<!-- Title: G Pages: 1 -->
<svg width="311pt" height="653pt"
 viewBox="0.00 0.00 311.00 653.00" xmlns="http://www.w3.org/2000/svg" xmlns:xlink="http://www.w3.org/1999/xlink">
<g id="graph0" class="graph" transform="scale(1 1) rotate(0) translate(4 649)">
<title>G</title>
<polygon fill="white" stroke="transparent" points="-4,4 -4,-649 307,-649 307,4 -4,4"/>
<!-- n1 -->
<g id="node1" class="node">
<title>n1</title>
<ellipse fill="none" stroke="black" cx="189" cy="-627" rx="18" ry="18"/>
<text text-anchor="middle" x="189" y="-623.3" font-family="Times New Roman,serif" font-size="14.00">A</text>
</g>
<!-- n7 -->
<g id="node2" class="node">
<title>n7</title>
<ellipse fill="none" stroke="black" cx="189" cy="-540" rx="18" ry="18"/>
<text text-anchor="middle" x="189" y="-536.3" font-family="Times New Roman,serif" font-size="14.00">B</text>
</g>
<!-- n1&#45;&gt;n7 -->
<g id="edge1" class="edge">
<title>n1&#45;&gt;n7</title>
<path fill="none" stroke="black" d="M189,-608.8C189,-597.16 189,-581.55 189,-568.24"/>
<polygon fill="black" stroke="black" points="192.5,-568.18 189,-558.18 185.5,-568.18 192.5,-568.18"/>
<text text-anchor="middle" x="218" y="-579.8" font-family="Times New Roman,serif" font-size="14.00">.trace() / 0</text>
</g>
<!-- n3 -->
<g id="node3" class="node">
<title>n3</title>
<ellipse fill="none" stroke="black" cx="132" cy="-453" rx="18" ry="18"/>
<text text-anchor="middle" x="132" y="-449.3" font-family="Times New Roman,serif" font-size="14.00">C</text>
</g>
<!-- n7&#45;&gt;n3 -->
<g id="edge2" class="edge">
<title>n7&#45;&gt;n3</title>
<path fill="none" stroke="black" d="M179.33,-524.58C170.57,-511.51 157.51,-492.04 147.33,-476.85"/>
<polygon fill="black" stroke="black" points="150.19,-474.85 141.72,-468.49 144.38,-478.74 150.19,-474.85"/>
<text text-anchor="middle" x="192" y="-492.8" font-family="Times New Roman,serif" font-size="14.00">.trace() / 1</text>
</g>
<!-- n4 -->
<g id="node6" class="node">
<title>n4</title>
<ellipse fill="none" stroke="black" cx="149" cy="-192" rx="18" ry="18"/>
<text text-anchor="middle" x="149" y="-188.3" font-family="Times New Roman,serif" font-size="14.00">F</text>
</g>
<!-- n7&#45;&gt;n4 -->
<g id="edge3" class="edge">
<title>n7&#45;&gt;n4</title>
<path fill="none" stroke="black" d="M202.98,-528.3C220.43,-513.61 248,-485.44 248,-454 248,-454 248,-454 248,-278 248,-239.53 204.44,-214.7 175.11,-202.34"/>
<polygon fill="black" stroke="black" points="176.38,-199.07 165.79,-198.62 173.79,-205.58 176.38,-199.07"/>
<text text-anchor="middle" x="275.5" y="-362.3" font-family="Times New Roman,serif" font-size="14.00">.load() / 2</text>
</g>
<!-- n5 -->
<g id="node4" class="node">
<title>n5</title>
<ellipse fill="none" stroke="black" cx="132" cy="-366" rx="18" ry="18"/>
<text text-anchor="middle" x="132" y="-362.3" font-family="Times New Roman,serif" font-size="14.00">D</text>
</g>
<!-- n3&#45;&gt;n5 -->
<g id="edge4" class="edge">
<title>n3&#45;&gt;n5</title>
<path fill="none" stroke="black" d="M132,-434.8C132,-423.16 132,-407.55 132,-394.24"/>
<polygon fill="black" stroke="black" points="135.5,-394.18 132,-384.18 128.5,-394.18 135.5,-394.18"/>
<text text-anchor="middle" x="163" y="-405.8" font-family="Times New Roman,serif" font-size="14.00">.pluck() / 3</text>
</g>
<!-- n0 -->
<g id="node5" class="node">
<title>n0</title>
<ellipse fill="none" stroke="black" cx="95" cy="-279" rx="18" ry="18"/>
<text text-anchor="middle" x="95" y="-275.3" font-family="Times New Roman,serif" font-size="14.00">E</text>
</g>
<!-- n5&#45;&gt;n0 -->
<g id="edge5" class="edge">
<title>n5&#45;&gt;n0</title>
<path fill="none" stroke="black" d="M118.08,-354.23C111.08,-347.97 103.2,-339.46 99,-330 95.93,-323.08 94.48,-315.08 93.91,-307.55"/>
<polygon fill="black" stroke="black" points="97.4,-307.25 93.61,-297.36 90.4,-307.46 97.4,-307.25"/>
<text text-anchor="middle" x="125" y="-318.8" font-family="Times New Roman,serif" font-size="14.00">.pull() / 4</text>
</g>
<!-- n0&#45;&gt;n4 -->
<g id="edge6" class="edge">
<title>n0&#45;&gt;n4</title>
<path fill="none" stroke="black" d="M90.13,-261.23C88.15,-251.01 87.44,-238.03 93,-228 99.47,-216.33 111.63,-208.03 122.98,-202.46"/>
<polygon fill="black" stroke="black" points="124.43,-205.64 132.17,-198.4 121.61,-199.24 124.43,-205.64"/>
<text text-anchor="middle" x="122" y="-231.8" font-family="Times New Roman,serif" font-size="14.00">.trace() / 5</text>
</g>
<!-- n4&#45;&gt;n5 -->
<g id="edge10" class="edge">
<title>n4&#45;&gt;n5</title>
<path fill="none" stroke="black" d="M152.01,-209.77C156.09,-235.93 161.71,-287.81 151,-330 149.99,-333.96 148.44,-337.95 146.65,-341.76"/>
<polygon fill="black" stroke="black" points="143.5,-340.22 141.87,-350.69 149.67,-343.52 143.5,-340.22"/>
<text text-anchor="middle" x="184.5" y="-275.3" font-family="Times New Roman,serif" font-size="14.00">.load() / 9</text>
</g>
<!-- n4&#45;&gt;n4 -->
<g id="edge9" class="edge">
<title>n4&#45;&gt;n4</title>
<path fill="none" stroke="black" d="M165.66,-199.38C175.62,-201.02 185,-198.56 185,-192 185,-187.8 181.15,-185.28 175.77,-184.44"/>
<polygon fill="black" stroke="black" points="175.6,-180.94 165.66,-184.62 175.72,-187.94 175.6,-180.94"/>
<text text-anchor="middle" x="214" y="-188.3" font-family="Times New Roman,serif" font-size="14.00">.trace() / 8</text>
</g>
<!-- n2 -->
<g id="node7" class="node">
<title>n2</title>
<ellipse fill="none" stroke="black" cx="149" cy="-105" rx="18" ry="18"/>
<text text-anchor="middle" x="149" y="-101.3" font-family="Times New Roman,serif" font-size="14.00">G</text>
</g>
<!-- n4&#45;&gt;n2 -->
<g id="edge7" class="edge">
<title>n4&#45;&gt;n2</title>
<path fill="none" stroke="black" d="M149,-173.8C149,-162.16 149,-146.55 149,-133.24"/>
<polygon fill="black" stroke="black" points="152.5,-133.18 149,-123.18 145.5,-133.18 152.5,-133.18"/>
<text text-anchor="middle" x="180" y="-144.8" font-family="Times New Roman,serif" font-size="14.00">.pluck() / 6</text>
</g>
<!-- n6 -->
<g id="node8" class="node">
<title>n6</title>
<ellipse fill="none" stroke="black" cx="61" cy="-18" rx="18" ry="18"/>
<text text-anchor="middle" x="61" y="-14.3" font-family="Times New Roman,serif" font-size="14.00">H</text>
</g>
<!-- n4&#45;&gt;n6 -->
<g id="edge8" class="edge">
<title>n4&#45;&gt;n6</title>
<path fill="none" stroke="black" d="M133.32,-182.6C114.61,-171.63 84.1,-150.54 70,-123 57.78,-99.13 56.68,-68.1 57.93,-46.17"/>
<polygon fill="black" stroke="black" points="61.44,-46.15 58.72,-35.91 54.46,-45.61 61.44,-46.15"/>
<text text-anchor="middle" x="96" y="-101.3" font-family="Times New Roman,serif" font-size="14.00">.pull() / 7</text>
</g>
<!-- n2&#45;&gt;n6 -->
<g id="edge11" class="edge">
<title>n2&#45;&gt;n6</title>
<path fill="none" stroke="black" d="M136.39,-91.82C121.88,-77.81 97.88,-54.62 80.86,-38.18"/>
<polygon fill="black" stroke="black" points="83.21,-35.59 73.58,-31.16 78.35,-40.62 83.21,-35.59"/>
<text text-anchor="middle" x="144.5" y="-57.8" font-family="Times New Roman,serif" font-size="14.00">.pluck() / 10</text>
</g>
<!-- n6&#45;&gt;n3 -->
<g id="edge12" class="edge">
<title>n6&#45;&gt;n3</title>
<path fill="none" stroke="black" d="M46.85,-29.35C28.83,-43.84 0,-72.03 0,-104 0,-367 0,-367 0,-367 0,-416.08 65.31,-438.17 104.05,-446.96"/>
<polygon fill="black" stroke="black" points="103.69,-450.46 114.2,-449.09 105.13,-443.61 103.69,-450.46"/>
<text text-anchor="middle" x="34.5" y="-231.8" font-family="Times New Roman,serif" font-size="14.00">.pluck() / 11</text>
</g>
</g>
</svg>
